<?xml version="1.0"?>
<svg xmlns="http://www.w3.org/2000/svg" viewBox="0 0 64 64" width="512" height="512"><g id="Outline_copy" data-name="Outline copy"><g><path d="M33.27,27.69a1,1,0,0,0-1.11.89L32,30.11a1,1,0,0,1-.66.83l-6.66,2.32a1,1,0,0,0-.67,1v8.93a1,1,0,0,0,.29.71l5.42,5.44A1,1,0,0,1,30,50v9a1,1,0,0,1-2,0V50.83a1,1,0,0,0-.29-.71l-5.79-5.83a1,1,0,0,0-.71-.29H19a1,1,0,0,0-1,1v8a1,1,0,0,1-.45.83l-9,6a1,1,0,0,1-1.38-.28,1,1,0,0,1,.28-1.38l8.1-5.41a1,1,0,0,0,.45-.83V45a1,1,0,0,0-2,0v6.39L6.34,56.5A3,3,0,0,0,8,62a3,3,0,0,0,1.66-.5l9-6A3,3,0,0,0,20,53V46h.79L26,51.24V59a3,3,0,0,0,6,0V50a3,3,0,0,0-.87-2.12L26,42.73V34.92l6-2.09a3,3,0,0,0,2-2.5l.17-1.53A1,1,0,0,0,33.27,27.69Z"/><path d="M12.88,40,14,39.1V41a1,1,0,0,0,2,0V37a1,1,0,0,0-.57-.9,1,1,0,0,0-1,.11l-2.74,2.18a1,1,0,0,1-.77.21l-6-.91-.16,0A1,1,0,0,1,4,36.58a1,1,0,0,1,.4-.65,1,1,0,0,1,.74-.19l5.15.78a1,1,0,0,0,.77-.2l5.14-4.09A3.47,3.47,0,0,1,17,32h1a1,1,0,0,0,1-1v-.42a1,1,0,0,0-.6-.92,4,4,0,1,1,3.2,0,1,1,0,0,0-.6.92V31a1,1,0,0,0,1,1h.62a1,1,0,0,0,.69-.28,1,1,0,0,1,.36-.23l5.81-2a1,1,0,0,0,.67-.83L31,20.89a1,1,0,0,1,1.1-.88,1,1,0,0,0,1.1-.89,1,1,0,0,0-.88-1.1A3,3,0,0,0,29,20.67l-.79,7.12-2.93,1a6,6,0,1,0-9.52,1.45l-.49.19-.22.13-4.9,3.9-4.72-.71a3,3,0,0,0-1.38,5.81,3.74,3.74,0,0,0,.48.12l6,.91A3,3,0,0,0,12.88,40Z"/><path d="M60.94,10.71A3,3,0,0,0,58.5,10,3.09,3.09,0,0,0,56,13.11V26H53.47A6.05,6.05,0,0,0,54.91,21a6,6,0,0,0-4.63-4.82,6.07,6.07,0,0,0-5.06,1.21,6,6,0,0,0-1.52,7.47l-2.93-1-.78-7A3.09,3.09,0,0,0,37,14h0a3,3,0,0,0-2.22,1A3,3,0,0,0,34,17.33l1,9a3,3,0,0,0,2,2.5l6,2.09v7.81l-5.13,5.15A3,3,0,0,0,37,46v8.89A3.09,3.09,0,0,0,39.5,58,3,3,0,0,0,43,55V47.24L48.21,42H49V58.89A3.09,3.09,0,0,0,51.5,62a2.81,2.81,0,0,0,.5,0,3,3,0,0,0,3-3V35a1,1,0,0,0-2,0V59a1,1,0,0,1-1.17,1,1.09,1.09,0,0,1-.83-1.1V41a1,1,0,0,0-1-1H47.79a1,1,0,0,0-.71.29l-5.79,5.83a1,1,0,0,0-.29.71V55a1,1,0,0,1-1.17,1,1.09,1.09,0,0,1-.83-1.1V46a1,1,0,0,1,.29-.71l5.42-5.44a1,1,0,0,0,.29-.71V30.21a1,1,0,0,0-.67-.95l-6.66-2.32a1,1,0,0,1-.66-.83l-1-9a1,1,0,0,1,.24-.77A1,1,0,0,1,37,16a1.11,1.11,0,0,1,1,1l.84,7.64a1,1,0,0,0,.67.83l5.81,2a1,1,0,0,1,.36.23,1,1,0,0,0,.69.28H47a1,1,0,0,0,1-1v-.42a1,1,0,0,0-.6-.92,4,4,0,1,1,3.2,0,1,1,0,0,0-.6.92V27a1,1,0,0,0,1,1h5a2,2,0,0,0,2-2V13.11a1.09,1.09,0,0,1,.82-1.1,1,1,0,0,1,.83.23A1,1,0,0,1,60,13V26a4,4,0,0,1-4,4H54a1,1,0,0,0,0,2h2a6,6,0,0,0,6-6V13A3,3,0,0,0,60.94,10.71Z"/><path d="M5,14a3,3,0,0,0,3-3V8h6v2.18A3,3,0,1,0,16,13V3a1,1,0,0,0-1-1H7A1,1,0,0,0,6,3V8.18A3,3,0,1,0,5,14Zm8,0a1,1,0,1,1,1-1A1,1,0,0,1,13,14ZM8,4h6V6H8ZM5,10a1,1,0,1,1-1,1A1,1,0,0,1,5,10Z"/><path d="M41.26,12.88a2.94,2.94,0,0,0,1.61.48A3.09,3.09,0,0,0,45.41,12h0l2.68-4.22,4.22,2.69a1,1,0,0,0,.54.16,1,1,0,0,0,.84-.46l2.15-3.38A1,1,0,0,0,56,6a1.05,1.05,0,0,0-.44-.63L50.48,2.16a1,1,0,0,0-1.38.3L47,5.83,45.24,8.52a2.9,2.9,0,0,0-.75-.69,3,3,0,0,0-3.23,5.05Zm9-8.5,3.37,2.15L52.54,8.22,49.17,6.07ZM42,9.82a1,1,0,0,1,.85-.46,1.08,1.08,0,0,1,.54.15,1,1,0,0,1,.43.63,1,1,0,0,1-.13.75h0a1,1,0,0,1-1.38.31A1,1,0,0,1,42,9.82Z"/><path d="M22,11.33a3,3,0,0,0,2.92,2.36,3.59,3.59,0,0,0,.65-.07,3,3,0,0,0,1.88-1.31h0l3.23-5.06a1,1,0,0,0-.3-1.38A1,1,0,0,0,29,6.17L27.28,8.85a2.88,2.88,0,0,0-.74-.69,3,3,0,0,0-4.14.91A2.91,2.91,0,0,0,22,11.33Zm2.08-1.18a1,1,0,0,1,.63-.44.78.78,0,0,1,.22,0,1,1,0,0,1,.84,1.53h0a1,1,0,0,1-.63.44,1,1,0,0,1-1.06-1.51Z"/><path d="M36,10a1,1,0,0,0,1-1V5a1,1,0,0,0-2,0V9A1,1,0,0,0,36,10Z"/><path d="M5,22v3a1,1,0,0,0,2,0V22a1,1,0,0,0-2,0Z"/><circle cx="26" cy="18" r="1"/><circle cx="21" cy="4" r="1"/></g></g></svg>
