<?xml version="1.0"?>
<svg xmlns="http://www.w3.org/2000/svg" id="outline" viewBox="0 0 512 512" width="512" height="512"><path d="M496,352a64.0727,64.0727,0,0,0-64-64H416.85925l6.73084-128H432a7.99977,7.99977,0,0,0,8-8V120a7.99977,7.99977,0,0,0-8-8H415.69531A104.13948,104.13948,0,0,0,312,16H264a104.13942,104.13942,0,0,0-103.69525,96H144a7.99977,7.99977,0,0,0-8,8v32a7.99977,7.99977,0,0,0,8,8h8.40985l.84137,16H128a7.99977,7.99977,0,0,0-8,8v32H109.4162L95.42773,181.02881a7.99765,7.99765,0,0,0-9.36816-4.79l-32,8a7.99978,7.99978,0,0,0-5.4873,10.73242A152.86043,152.86043,0,0,1,55.24579,216H40a8.00059,8.00059,0,0,0-7.76123,6.05957A140.49314,140.49314,0,0,0,30.15338,280H24a7.99989,7.99989,0,0,0-7.94287,8.95312l24,200A7.9995,7.9995,0,0,0,48,496H432a64.0727,64.0727,0,0,0,64-64,7.99977,7.99977,0,0,0-8-8H475.69507A31.794,31.794,0,0,0,480,408V376a31.794,31.794,0,0,0-4.30493-16H488A7.99977,7.99977,0,0,0,496,352ZM264,32h48a88.11883,88.11883,0,0,1,87.63965,80H176.36035A88.11883,88.11883,0,0,1,264,32ZM152,128H424v16H152Zm255.56848,32-6.73083,128H320a64.0727,64.0727,0,0,0-64,64,7.99977,7.99977,0,0,0,8,8v8a7.99921,7.99921,0,0,0,3.3501,6.50977L272,377.83105V408a31.794,31.794,0,0,0,4.30493,16H264a7.99977,7.99977,0,0,0-8,8,63.86851,63.86851,0,0,0,2.09961,16.26123H212.82593l19.11694-159.30811A7.99989,7.99989,0,0,0,224,280h-3.084A112.59607,112.59607,0,0,0,232,231.44873V208a7.99977,7.99977,0,0,0-8-8H192a7.99977,7.99977,0,0,0-8,8v8H171.37628l-2.94476-56ZM328.89307,398.80664,280,363.88281V360H408v2.84863ZM139.1521,257.4834l11.28979,3.76318L137.75366,312H107.314l-.49108-.49109,9.71569-11.65832A118.618,118.618,0,0,0,139.1521,257.4834Zm28.60913.457A7.991,7.991,0,0,0,167.99268,256H168V232h16v5.21533a47.7929,47.7929,0,0,1-3.43311,17.82666L169.182,283.50452l-10.41559,10.4154Zm27.66113,3.04395A63.7148,63.7148,0,0,0,200,237.21533V216h16v15.44873a96.49144,96.49144,0,0,1-10.13477,42.93262L203.05591,280H187.81616ZM136,192h16v52.90063l-9.35077-3.11682A118.055,118.055,0,0,0,144,224a7.99977,7.99977,0,0,0-8-8Zm-8.31445,40a102.70728,102.70728,0,0,1-23.439,57.60742l-8.78412,10.54126L82.72,287.40649l12.53442-15.66821A76.74143,76.74143,0,0,0,111.57568,232Zm-44.52-38.54541,12.8031,32.00757a60.64144,60.64144,0,0,1-13.20838,36.281L74.26318,272.3645a169.45991,169.45991,0,0,0-7.67431-74.76538ZM46.4082,232H58.20874a153.224,153.224,0,0,1-.221,41.51709L57.06171,280H46.41553A124.5399,124.5399,0,0,1,46.4082,232ZM192,480H55.09717L33.01758,296H68.686l29.65722,29.65674A7.99877,7.99877,0,0,0,104,328h40a7.99877,7.99877,0,0,0,5.65674-2.34326L179.314,296h35.66846L192.90283,480Zm17.01727,0,1.88861-15.73877h53.85474A64.43342,64.43342,0,0,0,277.73584,480ZM432,480H320a48.07871,48.07871,0,0,1-47.3335-40h206.667A48.07871,48.07871,0,0,1,432,480ZM304,424a16.01833,16.01833,0,0,1-16-16v-8h15.03638l20.31372,14.50977a7.99906,7.99906,0,0,0,7.96045.77294L364.9325,400H464v8a16.01833,16.01833,0,0,1-16,16Zm160-48v8H400.13257l19.178-8.71729A7.99917,7.99917,0,0,0,424,368v-8h24A16.01833,16.01833,0,0,1,464,376ZM272.6665,344A48.07871,48.07871,0,0,1,320,304H432a48.07871,48.07871,0,0,1,47.3335,40Z"/></svg>
